<?xml version="1.0" standalone="no"?>
<!DOCTYPE svg PUBLIC "-//W3C//DTD SVG 20010904//EN"
 "http://www.w3.org/TR/2001/REC-SVG-20010904/DTD/svg10.dtd">
<svg version="1.0" xmlns="http://www.w3.org/2000/svg"
 width="2400.000000pt" height="1500.000000pt" viewBox="0 0 2400.000000 1500.000000"
 preserveAspectRatio="xMidYMid meet">

<g transform="translate(0.000000,1500.000000) scale(0.100000,-0.100000)"
fill="#000000" stroke="none">
<path d="M0 7500 l0 -7500 12000 0 12000 0 0 7500 0 7500 -12000 0 -12000 0 0
-7500z m8360 4154 c0 -28 -4 -43 -10 -39 -5 3 -10 26 -10 51 0 28 4 43 10 39
6 -3 10 -26 10 -51z m-300 -149 c0 -8 -4 -15 -10 -15 -5 0 -10 7 -10 15 0 8 5
15 10 15 6 0 10 -7 10 -15z m420 -198 c0 -16 -113 -127 -129 -127 -22 0 -9 23
47 80 57 59 82 73 82 47z m7215 -11 c0 -11 -10 -23 -24 -27 -19 -8 -22 -6 -17
7 3 8 6 22 6 31 0 8 7 13 18 11 9 -2 17 -12 17 -22z m-7209 -227 c-8 -19 -17
-56 -21 -84 -4 -27 -14 -62 -22 -77 -17 -34 -38 -38 -28 -5 3 12 15 55 25 95
10 40 26 82 35 92 25 27 28 20 11 -21z m6759 -111 c-20 -46 -43 -78 -56 -78
-17 0 -19 41 -3 68 16 28 64 65 73 56 2 -2 -4 -23 -14 -46z m-6671 -35 c-3
-27 -22 -95 -40 -153 -19 -58 -34 -110 -34 -115 0 -6 -9 -28 -21 -49 -18 -33
-18 -40 -6 -55 21 -23 29 -94 21 -175 l-7 -71 -13 35 c-7 19 -13 60 -13 90 -2
89 -15 94 -51 17 -57 -117 -78 -110 -41 14 11 35 22 80 26 99 4 19 17 44 30
55 26 23 74 165 80 234 2 25 4 49 4 53 2 12 53 68 63 68 5 0 7 -19 2 -47z
m-294 -2 c0 -11 -28 -51 -62 -89 -35 -39 -71 -82 -81 -96 -10 -14 -27 -26 -38
-26 -29 0 -17 35 28 81 l35 37 -37 12 c-30 10 -39 9 -53 -3 -9 -8 -23 -16 -30
-18 -16 -5 -87 -103 -116 -162 -17 -35 -25 -43 -30 -32 -11 29 -7 39 49 135
47 79 53 95 40 102 -17 10 -20 38 -4 38 7 0 18 -8 25 -17 12 -17 14 -17 35 4
21 20 24 21 46 6 13 -9 43 -17 67 -17 35 -1 50 5 80 32 43 37 46 38 46 13z
m7301 -144 c-8 -8 -11 -7 -11 4 0 9 3 19 7 23 4 4 9 2 11 -4 3 -7 -1 -17 -7
-23z m-505 -54 c-10 -10 -19 5 -10 18 6 11 8 11 12 0 2 -7 1 -15 -2 -18z m534
-25 c17 -12 30 -26 30 -31 0 -13 -106 -117 -119 -117 -17 0 -14 9 23 59 27 36
33 53 29 79 -6 38 -2 39 37 10z m-7420 -56 c0 -9 9 -44 20 -76 11 -33 18 -61
16 -64 -6 -6 -70 34 -87 54 -11 14 -11 18 4 29 9 7 17 21 17 33 0 29 11 53 21
46 5 -3 9 -13 9 -22z m-190 -20 c0 -14 -71 -113 -86 -119 -9 -3 -20 -1 -25 4
-13 13 20 71 44 79 9 3 22 14 27 25 10 18 40 27 40 11z m6900 -137 c0 -12 -50
-55 -64 -55 -12 0 -6 23 14 51 21 28 50 30 50 4z m-219 -15 c10 -6 19 -19 19
-28 0 -10 5 -23 11 -29 6 -6 9 -19 7 -29 -4 -16 -7 -14 -19 11 -18 39 -29 46
-61 39 -21 -4 -28 -2 -28 10 0 14 25 35 43 36 5 0 17 -5 28 -10z m723 -16 c10
-25 -21 -66 -46 -62 -30 4 -32 20 -8 51 24 31 45 35 54 11z m-24 -140 c0 -8
-4 -12 -10 -9 -5 3 -10 10 -10 16 0 5 5 9 10 9 6 0 10 -7 10 -16z m-202 -67
c2 -15 9 -27 16 -27 21 0 37 -25 25 -37 -7 -7 -6 -31 2 -78 7 -43 8 -70 2 -74
-6 -3 -15 -16 -22 -28 -16 -31 -33 -29 -31 5 1 15 2 32 1 37 -1 6 -38 10 -88
10 -72 0 -88 3 -88 15 0 9 7 14 19 12 33 -6 66 7 66 27 0 10 7 24 16 32 15 12
15 34 -3 106 -4 18 0 22 24 26 48 7 58 3 61 -26z m-6746 -19 c0 -7 2 -20 2
-28 1 -10 10 -14 28 -12 35 3 52 -26 38 -62 -11 -30 1 -70 24 -79 9 -4 26 -27
38 -52 21 -43 38 -58 38 -34 0 7 14 8 39 4 25 -4 41 -2 46 5 4 7 18 9 35 5 23
-5 31 -2 40 15 20 36 -8 54 -40 25 -16 -14 -18 -13 -24 16 -7 37 -2 46 17 30
8 -6 22 -9 31 -5 20 8 66 -21 66 -41 0 -7 -8 -16 -18 -19 -36 -12 -64 -52 -60
-87 3 -30 7 -34 36 -37 36 -4 41 -16 12 -32 -25 -13 -25 -25 0 -50 15 -15 17
-25 11 -42 -6 -16 0 -40 21 -87 15 -35 27 -66 24 -68 -10 -11 -85 21 -89 38
-7 27 -44 23 -63 -6 -16 -25 -16 -27 5 -46 23 -21 27 -44 11 -54 -12 -7 -4
-25 11 -25 5 0 9 11 9 24 0 34 42 44 71 15 29 -29 34 -76 9 -89 -14 -7 -20
-21 -20 -43 0 -25 7 -36 30 -49 17 -9 35 -29 40 -43 13 -33 54 -53 75 -35 25
21 19 71 -12 98 l-28 23 25 -6 c44 -11 52 -10 63 6 7 12 5 23 -11 45 -12 16
-24 41 -28 57 -9 37 15 36 61 -4 22 -20 41 -29 51 -25 10 4 25 -3 40 -19 30
-33 31 -55 2 -55 -13 -1 -33 -9 -45 -19 -26 -22 -47 -94 -35 -118 5 -10 7 -33
5 -50 -5 -34 4 -42 25 -21 9 9 13 8 17 -4 7 -18 -11 -68 -24 -68 -16 0 -43
-66 -39 -97 2 -21 12 -32 41 -46 42 -19 43 -23 21 -48 -15 -17 -15 -19 0 -34
9 -9 16 -20 16 -25 0 -5 11 -21 24 -37 16 -19 25 -46 30 -88 7 -66 4 -73 -36
-94 -16 -8 -28 -23 -28 -33 0 -10 -6 -18 -13 -18 -22 0 -37 23 -37 56 0 19 -6
34 -15 38 -11 4 -15 -2 -15 -24 0 -16 7 -35 15 -44 8 -8 15 -20 15 -26 0 -6
16 -18 35 -26 35 -14 44 -28 25 -39 -16 -10 -12 -35 8 -42 9 -3 31 -19 49 -36
26 -24 35 -28 47 -18 7 6 12 21 9 31 -6 23 0 25 28 9 15 -8 31 -6 64 6 42 16
85 13 85 -6 0 -5 -9 -9 -20 -9 -25 0 -60 -34 -60 -59 0 -10 8 -29 18 -41 l18
-22 34 20 c18 12 65 26 103 33 94 17 110 31 110 100 0 30 -8 85 -18 124 -15
58 -17 91 -11 201 6 112 4 138 -10 171 -39 89 -94 239 -94 256 0 15 3 16 20 7
11 -6 20 -17 20 -25 0 -8 11 -22 25 -31 19 -12 25 -25 25 -51 0 -18 9 -50 19
-71 10 -20 35 -95 54 -165 20 -70 45 -139 57 -154 11 -14 20 -34 20 -43 0 -22
62 -60 97 -60 22 0 25 -3 20 -26 -5 -28 17 -94 31 -94 5 0 15 -11 22 -25 7
-14 18 -25 23 -25 6 0 25 -12 44 -26 37 -28 103 -44 103 -25 0 16 45 13 60 -4
18 -22 76 -18 110 6 23 17 37 20 68 15 30 -4 45 -1 63 12 13 10 32 22 42 25
15 6 16 10 6 28 -10 19 -8 25 12 40 30 23 19 45 -37 74 -22 11 -53 30 -68 43
-16 12 -34 22 -40 22 -16 1 -121 99 -113 106 4 4 24 -5 44 -19 60 -41 91 -50
124 -35 34 15 38 33 9 41 -11 3 -20 10 -20 16 0 14 17 14 25 1 12 -20 26 2 20
31 -6 24 -3 29 18 34 30 8 51 -3 109 -53 24 -20 70 -55 101 -76 52 -36 58 -38
70 -23 32 42 105 -44 167 -196 31 -75 41 -83 87 -69 21 6 37 10 38 9 19 -46
55 -169 55 -186 0 -13 13 -36 31 -52 16 -15 40 -54 53 -86 19 -49 22 -75 21
-163 -1 -58 2 -113 7 -123 5 -10 8 -30 6 -44 l-3 -27 -36 32 c-39 34 -59 40
-59 18 0 -7 -9 -25 -21 -40 -11 -15 -34 -63 -50 -108 -27 -77 -40 -97 -65 -98
-14 0 -64 -53 -64 -68 0 -7 11 -12 24 -12 63 0 73 -30 26 -80 -25 -26 -35 -31
-58 -26 -70 16 -252 27 -288 17 -21 -6 -40 -8 -43 -6 -3 3 15 26 39 50 36 36
51 45 80 45 19 0 44 7 54 15 11 8 27 15 36 15 9 0 27 14 39 31 21 28 22 35 12
74 -6 24 -11 46 -11 49 0 11 31 6 55 -10 35 -23 66 -14 92 26 12 19 39 53 60
75 l38 40 -28 3 c-16 2 -31 10 -34 18 -9 23 4 28 29 10 28 -20 57 -21 64 -1 7
16 -114 182 -147 203 -17 11 -21 9 -29 -13 -12 -30 -35 -32 -50 -4 -6 11 -19
19 -29 17 -27 -5 -71 23 -87 54 -11 21 -22 28 -44 28 -25 0 -30 -4 -30 -23 0
-13 -6 -29 -12 -36 -11 -10 -9 -15 6 -27 11 -8 26 -14 33 -14 26 0 12 -29 -24
-51 -21 -13 -41 -27 -44 -32 -3 -4 -38 -10 -77 -12 -58 -3 -72 -1 -72 11 0 18
4 18 -66 -7 -32 -11 -72 -24 -89 -28 -27 -7 -30 -11 -27 -43 2 -32 0 -35 -21
-31 -13 3 -29 -2 -35 -10 -7 -8 -21 -13 -31 -10 -27 7 -61 -14 -61 -39 0 -20
4 -21 65 -15 61 6 66 5 80 -17 16 -24 51 -40 66 -30 5 3 -1 14 -12 25 -27 27
-15 42 27 35 27 -6 35 -3 44 14 15 29 44 8 30 -21 -6 -10 -15 -28 -20 -39 -9
-17 -7 -20 15 -20 20 0 25 5 25 25 0 16 6 25 15 25 9 0 20 -11 25 -25 10 -25
16 -28 60 -26 31 2 55 -13 46 -28 -4 -7 -40 -11 -88 -11 -45 0 -96 -5 -113
-11 -39 -14 -70 -8 -117 25 -34 22 -60 30 -98 27 -12 -1 -12 -4 2 -17 13 -13
14 -22 6 -45 -13 -38 -4 -59 23 -59 13 0 30 -7 40 -16 16 -15 20 -15 41 0 24
17 48 21 48 8 0 -5 -15 -26 -33 -47 -29 -34 -40 -39 -78 -40 -26 -1 -57 6 -77
17 -41 23 -41 23 -53 -8 -15 -40 -22 -22 -9 25 6 22 11 61 12 86 0 25 4 48 9
51 14 8 10 78 -5 99 -14 19 -15 19 -41 -7 -21 -22 -26 -35 -23 -59 4 -25 0
-33 -19 -42 -14 -6 -31 -24 -39 -39 -16 -31 -45 -36 -64 -13 -7 8 -21 15 -31
15 -16 0 -17 2 -3 28 7 15 14 32 14 37 0 17 -103 55 -148 55 l-43 0 -40 85
c-28 61 -44 85 -57 85 -22 0 -63 -42 -86 -86 -8 -18 -28 -36 -43 -42 -33 -11
-60 -76 -78 -182 -7 -46 -15 -65 -25 -65 -28 0 -16 109 25 235 35 108 40 118
94 168 51 49 54 55 38 66 -9 7 -17 18 -17 25 0 16 -11 14 -26 -6 -12 -17 -13
-17 -20 0 -3 10 -2 23 5 30 18 18 13 32 -21 51 -18 10 -42 29 -53 41 -18 22
-24 23 -69 14 -27 -5 -57 -15 -65 -22 -9 -7 -35 -23 -58 -35 -38 -21 -49 -22
-110 -14 -37 5 -75 7 -83 4 -8 -3 -34 -23 -57 -45 -68 -65 -67 -30 0 57 l31
38 73 -6 c70 -7 74 -6 97 20 47 52 56 64 56 73 0 20 20 21 37 1 17 -19 72 -28
86 -13 4 3 -10 21 -31 39 -29 26 -46 33 -78 34 -55 0 -71 19 -44 53 11 14 20
28 20 31 0 3 -36 35 -80 72 -61 50 -78 69 -70 79 16 20 -19 29 -40 10 -9 -8
-29 -15 -44 -15 -34 0 -86 -26 -86 -44 0 -7 9 -21 20 -31 11 -10 20 -24 20
-31 0 -7 12 -14 27 -16 26 -3 26 -3 8 -22 -18 -18 -19 -18 -35 1 -9 11 -26 24
-38 27 -13 4 -24 18 -28 34 -10 48 -23 72 -40 72 -9 0 -14 7 -12 18 3 14 13
17 67 14 34 -2 68 1 74 7 7 5 23 11 37 13 18 2 26 10 28 28 1 14 7 41 13 61
10 33 9 39 -11 59 -17 17 -21 31 -19 68 4 87 1 99 -28 108 -16 4 -36 6 -47 5
-35 -5 -86 10 -86 24 0 25 45 48 69 36 27 -15 36 -14 22 2 -6 8 -9 16 -6 19 3
3 -1 11 -10 18 -19 16 -19 36 0 44 17 6 20 26 4 26 -6 0 -26 12 -45 27 -26 19
-32 29 -24 37 8 8 15 7 23 -4 7 -8 27 -20 45 -27 48 -17 55 9 14 50 -25 24
-34 28 -45 19 -12 -10 -15 -5 -20 35 -4 36 -12 53 -32 69 -15 12 -29 33 -30
47 -4 38 -13 47 -45 47 -28 0 -29 2 -19 27 17 46 20 131 4 137 -8 3 -17 1 -20
-5 -4 -5 -11 -6 -17 -3 -5 3 0 11 13 18 31 15 34 33 8 41 -16 6 -27 1 -44 -21
-12 -16 -27 -24 -33 -20 -16 10 -15 36 2 55 8 9 17 30 20 48 9 38 -15 59 -45
40 -15 -9 -23 -7 -42 11 -31 29 -37 28 -37 -10 0 -18 -3 -50 -6 -70 -6 -32
-11 -38 -30 -38 -22 0 -24 4 -24 58 0 32 -6 66 -14 77 -7 11 -16 37 -20 57 -8
44 -58 88 -100 88 -32 0 -47 29 -24 44 15 9 15 13 -3 38 -15 20 -28 28 -47 26
-56 -4 -115 61 -105 115 8 42 22 43 54 4 21 -25 35 -34 49 -30 15 4 20 0 20
-16 0 -11 4 -21 10 -21 5 0 19 -22 31 -49 18 -42 26 -50 55 -56 40 -7 94 19
94 46 0 20 -11 25 -76 34 -64 10 -67 12 -48 41 15 23 15 26 -1 44 -19 21 -14
50 9 50 8 0 16 -14 20 -35 7 -35 29 -65 47 -65 20 0 69 59 69 83 0 21 -6 25
-52 33 -47 8 -53 12 -53 33 0 20 6 24 45 27 25 3 48 11 53 19 10 18 26 20 29
3z m648 -63 c0 -8 -6 -15 -14 -15 -17 0 -28 14 -19 24 12 12 33 6 33 -9z
m6301 -6 c38 -27 37 -39 -5 -32 -28 4 -35 2 -38 -13 -3 -11 2 -27 11 -37 11
-14 12 -20 2 -30 -16 -16 -47 4 -43 29 1 11 3 38 4 62 1 34 5 42 21 42 10 0
32 -9 48 -21z m-92 -11 c12 -15 11 -18 -3 -18 -10 0 -16 8 -16 22 0 12 1 19 3
17 1 -2 9 -12 16 -21z m-6290 -94 c-14 -18 -24 -11 -15 11 3 9 11 13 16 10 8
-5 7 -11 -1 -21z m5102 -31 c-27 -38 -32 -53 -27 -82 5 -32 4 -33 -11 -19 -22
23 -10 75 28 121 43 52 50 37 10 -20z m-6131 18 c0 -5 -9 -19 -20 -32 l-21
-24 16 33 c15 31 25 41 25 23z m7624 -22 c29 -8 36 -13 25 -20 -23 -14 -99
-11 -99 4 0 29 15 32 74 16z m-214 -33 c0 -7 -9 -25 -21 -40 -24 -31 -45 -36
-29 -7 5 11 10 29 10 40 0 14 6 21 20 21 11 0 20 -6 20 -14z m-479 -56 c23
-10 36 -10 55 -1 47 21 21 -12 -27 -36 -38 -18 -47 -28 -58 -64 -17 -57 -41
-93 -54 -80 -18 18 13 101 45 121 l29 18 -27 21 c-25 20 -26 23 -14 49 13 25
14 26 17 5 3 -12 17 -26 34 -33z m621 -60 c15 -25 33 -67 39 -95 14 -64 27
-238 19 -248 -10 -12 -85 18 -88 35 -2 10 7 18 21 22 31 7 40 39 31 109 -7 57
-46 150 -76 184 -11 12 -17 27 -13 33 13 21 39 5 67 -40z m-406 -41 c-3 -17
-6 -44 -6 -58 0 -15 -6 -35 -13 -46 -13 -17 -16 -17 -47 -1 -19 9 -42 14 -52
10 -30 -9 -21 6 40 67 66 67 88 75 78 28z m-5634 -217 c2 -75 3 -139 1 -141
-5 -7 -32 33 -39 57 -4 13 0 57 8 98 12 64 12 78 1 94 -16 23 -9 42 11 34 11
-4 15 -38 18 -142z m4854 103 c-4 -14 -11 -25 -16 -25 -5 0 -5 13 2 31 12 35
23 31 14 -6z m-270 -30 c16 -40 18 -71 4 -80 -11 -7 -25 24 -35 79 -9 47 11
48 31 1z m954 -9 c0 -14 -4 -28 -10 -31 -21 -13 -9 -26 23 -23 26 2 32 7 32
27 1 36 20 36 35 2 7 -17 18 -36 26 -42 19 -15 18 -58 -1 -65 -8 -4 -22 -1
-30 6 -13 11 -22 10 -48 -5 -48 -25 -80 -17 -88 23 -5 26 -3 35 13 43 15 8 18
17 13 41 -5 21 -3 33 6 39 22 14 29 10 29 -15z m-690 -33 c0 -15 -8 -35 -17
-45 -12 -13 -14 -21 -6 -29 8 -8 8 -18 1 -35 -9 -20 -7 -30 15 -62 15 -20 29
-52 33 -69 5 -25 13 -33 35 -38 43 -10 43 -9 43 50 0 54 1 55 28 55 25 0 27
-2 17 -18 -8 -13 -9 -35 -4 -68 5 -27 7 -53 6 -58 -5 -23 23 -37 64 -30 36 5
46 2 64 -17 16 -18 30 -23 60 -20 49 3 60 -13 31 -44 -19 -20 -21 -27 -10 -40
12 -14 11 -23 -7 -108 -3 -15 -9 -30 -15 -33 -16 -10 -38 17 -38 48 0 38 -24
32 -28 -7 -4 -29 -23 -55 -40 -55 -14 0 -24 31 -14 44 13 16 24 66 15 66 -22
-1 -35 -20 -31 -44 6 -27 1 -31 -20 -17 -9 6 -11 19 -7 44 5 27 3 38 -7 42 -7
3 -25 26 -38 51 -25 44 -66 68 -98 56 -19 -7 -25 -47 -12 -74 22 -41 84 -118
96 -118 7 0 11 -18 10 -46 -1 -49 -1 -49 73 -97 33 -22 57 -62 42 -71 -4 -3
-27 13 -52 34 -51 45 -69 49 -69 17 0 -56 -37 -40 -46 20 -5 32 -10 41 -17 34
-8 -8 -8 -20 0 -42 10 -26 10 -36 -2 -53 -8 -11 -15 -33 -15 -49 0 -15 -5 -47
-11 -71 -10 -40 -9 -46 21 -89 29 -44 31 -49 22 -99 -12 -62 -2 -95 33 -108
14 -5 30 -21 37 -35 6 -13 20 -27 30 -31 30 -9 105 -62 111 -78 3 -8 -1 -17
-10 -20 -9 -4 -13 -9 -10 -13 4 -3 13 0 21 6 8 7 20 9 27 5 7 -4 19 3 29 16
17 22 19 23 35 7 18 -19 45 -23 45 -7 0 18 29 11 40 -9 18 -35 12 -42 -28 -35
-32 5 -43 2 -70 -21 -25 -20 -39 -25 -58 -21 -19 5 -25 3 -21 -6 4 -14 24 -14
67 -3 l25 7 -22 -20 c-13 -11 -23 -27 -23 -35 0 -21 -58 -43 -73 -28 -6 6 -19
11 -30 11 -16 0 -17 5 -11 48 4 26 11 57 15 70 13 34 11 52 -6 52 -8 0 -15 4
-15 8 0 9 -59 32 -82 32 -25 0 -46 -32 -53 -82 -8 -50 -18 -57 -51 -34 -16 12
-17 18 -7 33 59 85 68 220 15 211 -10 -2 -18 5 -20 17 -6 29 -19 42 -69 66
-37 18 -44 25 -39 44 4 17 0 25 -20 33 -31 15 -89 15 -114 2 -15 -8 -50 -62
-50 -78 0 -2 18 -2 40 0 42 4 54 -6 20 -17 -28 -9 -25 -35 6 -60 23 -18 25
-24 14 -41 -7 -11 -24 -27 -39 -35 -32 -19 -71 -112 -71 -171 0 -21 -4 -47 -9
-56 -5 -9 -12 -47 -16 -83 l-7 -66 36 -36 c20 -20 36 -44 36 -53 0 -11 5 -14
16 -10 9 3 18 6 20 6 13 0 1 37 -21 66 -14 18 -25 42 -25 53 0 11 -9 25 -20
31 -28 15 -25 28 8 32 19 2 26 8 24 21 -2 14 5 17 39 17 l42 0 -19 -22 c-45
-51 -56 -111 -24 -128 11 -6 20 -17 20 -25 0 -21 38 -19 84 5 34 17 42 18 71
6 30 -13 48 -39 44 -62 -1 -5 -1 -22 0 -38 1 -28 2 -28 49 -22 133 17 145 23
136 75 -7 33 -6 35 9 22 10 -7 17 -24 17 -36 0 -41 23 -50 94 -37 35 7 75 12
89 12 14 0 27 4 29 10 2 6 21 3 47 -6 42 -14 45 -14 68 8 21 20 27 21 56 10
19 -7 40 -12 49 -12 21 0 70 -39 63 -50 -3 -5 -20 -7 -36 -3 -17 3 -62 0 -100
-7 -53 -10 -81 -11 -118 -2 -38 9 -59 8 -102 -3 -30 -8 -67 -15 -84 -15 -22 0
-26 -3 -17 -12 16 -16 -4 -38 -35 -38 -13 0 -37 -7 -53 -15 -27 -14 -30 -14
-30 0 0 16 -17 19 -44 9 -23 -9 -20 -30 7 -50 21 -16 21 -16 -24 -10 -41 5
-52 2 -86 -23 -21 -15 -51 -43 -67 -61 -29 -36 -29 -62 1 -108 12 -20 20 -23
49 -17 42 7 43 -4 5 -43 -32 -32 -49 -39 -163 -71 -85 -23 -108 -26 -108 -12
0 12 81 51 106 51 51 0 79 53 54 101 -13 23 -62 26 -80 4 -7 -8 -21 -15 -31
-15 -9 0 -24 -7 -33 -15 -16 -16 -36 -20 -36 -7 0 4 18 26 40 47 47 46 54 81
15 71 -14 -3 -37 -9 -51 -12 -20 -5 -26 -2 -31 15 -7 26 -19 27 -25 4 -7 -26
-85 -48 -105 -31 -23 19 -74 19 -110 0 -30 -15 -32 -19 -27 -52 5 -31 0 -43
-35 -89 -44 -59 -46 -81 -11 -154 l18 -38 -33 -25 c-22 -16 -44 -24 -60 -22
l-27 3 21 27 c26 33 31 128 6 128 -13 0 -150 -64 -210 -97 -36 -21 -175 -47
-186 -36 -7 7 9 14 48 22 32 6 68 17 79 25 11 8 38 19 60 25 60 16 214 121
246 167 36 52 51 95 39 107 -5 5 -7 22 -4 37 5 26 3 27 -23 22 -16 -2 -37 -13
-47 -23 -10 -11 -22 -19 -27 -19 -6 0 -10 -11 -10 -25 0 -28 -16 -31 -44 -10
-27 20 -100 19 -117 -1 -8 -10 -13 -44 -13 -92 -1 -71 -3 -77 -26 -89 -33 -18
-95 -13 -95 7 0 10 12 16 33 18 27 3 32 7 27 22 -4 14 0 19 17 22 16 2 22 9
20 23 -11 90 -24 116 -54 112 -34 -3 -32 25 2 48 16 11 30 28 30 38 0 12 8 17
29 17 16 0 35 8 42 17 13 15 11 16 -10 10 -24 -6 -61 10 -61 28 -1 21 -38 55
-54 49 -9 -3 -34 -29 -57 -58 -32 -40 -37 -52 -25 -54 22 -5 20 -22 -2 -22
-10 0 -23 -5 -30 -12 -19 -19 6 -38 49 -38 45 0 57 -14 34 -40 -37 -41 -168
-37 -187 6 -7 14 -30 33 -53 43 -34 15 -52 17 -104 10 -68 -10 -81 -15 -81
-31 0 -6 -7 -16 -16 -22 -21 -16 -8 -43 27 -55 30 -10 39 -38 15 -47 -18 -7
-72 21 -85 43 -9 17 -11 17 -25 -2 -8 -11 -13 -27 -11 -35 3 -8 0 -22 -5 -30
-9 -13 -14 -11 -33 13 -13 15 -27 27 -33 27 -16 0 -50 40 -81 96 -15 28 -47
80 -70 115 -42 63 -43 65 -43 154 0 78 4 96 25 134 30 52 31 58 5 66 -14 4
-20 15 -20 36 0 40 15 66 66 115 39 39 42 45 37 83 -6 47 3 52 37 16 32 -34
47 -32 92 12 31 30 38 44 38 76 0 32 7 46 39 78 21 22 48 39 60 39 12 0 32 6
44 12 12 7 51 15 87 18 l64 5 83 100 c46 55 97 124 114 152 29 50 112 123 139
123 7 0 29 12 49 28 19 15 49 36 67 47 17 11 49 32 71 47 40 28 103 47 103 31
0 -5 -29 -26 -65 -47 -90 -52 -131 -106 -82 -106 23 -1 74 -36 64 -46 -3 -3
-14 -1 -25 5 -16 9 -23 7 -34 -11 -17 -26 -48 -19 -48 11 0 33 -17 33 -61 1
-23 -16 -47 -30 -53 -30 -29 -1 -92 -67 -156 -163 -38 -58 -70 -110 -70 -116
0 -7 14 -9 39 -5 33 5 41 3 50 -15 10 -18 8 -22 -24 -35 -19 -8 -35 -22 -35
-30 0 -20 -14 -20 -44 -1 -22 15 -25 14 -75 -35 -72 -70 -87 -69 -49 6 22 45
20 66 -5 45 -8 -6 -39 -18 -68 -27 -66 -20 -81 -31 -73 -56 4 -13 -6 -32 -34
-62 -47 -51 -66 -103 -59 -162 5 -49 -13 -84 -44 -84 -10 0 -19 -5 -19 -11 0
-14 66 -3 95 15 11 8 36 17 55 20 19 4 49 13 65 21 17 7 47 20 68 29 21 9 37
23 37 32 0 14 8 16 50 10 45 -6 50 -5 50 12 0 17 6 19 43 15 36 -4 48 -1 75
22 49 41 89 12 42 -30 -21 -19 -27 -45 -11 -45 5 0 22 5 36 10 23 9 26 14 21
36 -5 17 -1 35 9 51 9 14 15 26 13 27 -2 2 -11 8 -22 13 -18 10 -18 11 2 31
12 12 28 19 35 16 25 -9 40 22 28 57 -15 43 -14 47 12 54 23 8 112 71 160 114
24 22 27 31 22 62 -6 33 -4 37 24 49 35 14 57 37 47 48 -4 3 -20 -1 -35 -10
-16 -8 -40 -14 -53 -11 -23 4 -89 -27 -155 -74 -30 -21 -29 -3 2 43 19 28 44
46 93 67 37 16 77 40 90 53 13 13 27 24 31 24 11 0 101 131 101 146 0 7 -7 14
-15 18 -8 3 -15 14 -15 25 0 11 -5 21 -11 23 -9 3 -9 10 0 26 9 16 18 21 31
17 11 -3 31 2 45 11 32 21 85 26 85 9 0 -23 -30 -86 -64 -134 -19 -26 -41 -62
-51 -80 l-17 -34 45 38 c25 21 50 48 56 61 15 34 46 31 61 -6 10 -25 10 -34
-4 -55 -20 -31 -21 -69 0 -85 12 -11 18 -11 31 2 23 24 5 268 -21 297 -30 33
-6 125 26 105 4 -3 8 -24 8 -47 0 -51 11 -70 33 -61 46 17 60 -45 26 -115 -11
-24 -18 -49 -15 -57 3 -7 -1 -32 -10 -55 -13 -40 -11 -109 5 -109 13 0 51 32
51 43 0 7 4 18 9 25 7 12 12 12 33 0 24 -12 24 -15 12 -45 -8 -18 -27 -42 -44
-54 -16 -13 -30 -29 -30 -36 0 -7 -13 -19 -29 -28 -17 -8 -43 -32 -58 -52 -15
-21 -36 -44 -45 -51 -10 -7 -23 -22 -29 -34 -9 -17 -6 -25 17 -49 24 -25 26
-31 14 -39 -22 -14 -28 -12 -35 9 -11 35 -75 41 -108 11 -18 -18 -20 -22 -7
-30 8 -5 21 -10 28 -10 15 0 16 -12 0 -28 -12 -12 5 -42 25 -42 18 0 87 -73
87 -92 0 -10 10 -20 25 -24 17 -4 31 -20 44 -48 12 -26 20 -36 23 -26 9 27 28
79 40 110 11 26 9 33 -10 60 l-23 31 35 14 c38 16 46 32 21 41 -8 3 -21 19
-29 34 -12 25 -12 30 7 49 16 15 22 38 26 93 7 84 -9 77 143 60 48 -5 94 -15
102 -21 8 -7 23 -10 34 -7 15 5 20 22 28 88 9 76 8 84 -13 124 -35 66 -27 117
12 74 10 -11 21 -20 25 -20 14 0 7 95 -8 113 -14 16 -13 17 16 17 18 0 32 3
32 8 0 4 -16 30 -36 57 -20 28 -44 68 -54 90 -17 39 -19 41 -59 37 -36 -4 -41
-2 -41 17 0 14 9 25 26 32 35 13 23 24 -22 21 -43 -3 -76 6 -69 19 4 5 15 9
25 9 29 0 34 19 12 43 -21 23 -35 87 -19 87 5 0 31 -8 58 -17 52 -19 70 -13
51 17 -20 32 -15 79 11 103 13 12 32 36 42 54 21 36 35 34 35 -4z m596 -13 c1
-37 -1 -40 -25 -40 -15 0 -32 5 -38 11 -9 9 -20 2 -44 -25 -51 -58 -102 -78
-58 -23 22 29 18 47 -11 47 -23 0 -36 18 -22 32 6 6 16 5 30 -3 16 -10 23 -10
36 0 11 9 20 10 34 2 15 -8 28 -7 51 5 17 8 33 19 36 25 9 14 10 12 11 -31z
m447 -109 c26 -9 39 -20 43 -38 9 -33 -11 -73 -36 -73 -22 0 -26 20 -11 49 12
22 3 36 -31 45 -20 4 -28 13 -28 27 0 16 3 19 13 12 6 -6 29 -16 50 -22z
m-1263 -6 c0 -8 -4 -15 -10 -15 -5 0 -10 7 -10 15 0 8 5 15 10 15 6 0 10 -7
10 -15z m-5765 -35 c0 -13 -6 -25 -12 -27 -9 -3 -13 6 -13 27 0 21 4 30 13 28
6 -3 12 -15 12 -28z m1465 -15 c0 -21 -30 -31 -41 -14 -14 23 -11 29 16 29 16
0 25 -6 25 -15z m-57 -32 c19 -6 24 -33 6 -33 -19 0 -69 41 -69 57 0 14 3 14
23 -1 12 -9 30 -19 40 -23z m4278 16 c16 -8 19 -17 14 -38 -4 -19 -1 -32 10
-41 8 -7 15 -19 15 -26 0 -25 -29 -15 -57 21 -15 19 -36 35 -45 35 -25 0 -22
26 4 44 27 19 33 19 59 5z m-5745 -64 c13 -28 14 -38 4 -50 -24 -29 -42 -18
-38 23 3 32 0 37 -19 40 -33 5 -28 22 7 22 23 0 32 -7 46 -35z m1613 -27 c6
-17 9 -34 6 -36 -3 -3 -6 -3 -7 -1 -2 2 -14 16 -27 31 -12 14 -20 31 -17 37
11 17 34 1 45 -31z m-186 7 c1 -5 -6 -11 -15 -13 -11 -2 -18 3 -18 13 0 17 30
18 33 0z m5094 -60 c6 -18 -23 -55 -44 -55 -17 0 -17 15 3 45 19 29 32 32 41
10z m279 -10 c9 -23 72 -38 133 -32 l56 6 -1 -32 c-1 -18 -4 -42 -8 -53 -7
-21 -7 -21 -36 8 -26 25 -34 28 -67 22 -64 -12 -83 -22 -83 -46 0 -17 -3 -19
-12 -10 -19 19 -49 14 -76 -10 l-25 -23 17 32 c24 49 21 82 -10 93 -22 9 -24
13 -13 26 8 10 22 14 40 10 17 -3 32 0 39 9 16 19 39 19 46 0z m-5132 -51 c10
-26 7 -34 -13 -34 -23 0 -35 15 -27 35 7 20 32 19 40 -1z m5376 -122 c0 -31
-54 -65 -73 -46 -8 9 44 64 60 64 7 0 13 -8 13 -18z m260 -52 c20 -13 7 -22
-35 -25 -54 -3 -45 28 10 34 6 0 17 -3 25 -9z m-7415 -21 c4 -11 4 -23 1 -26
-8 -9 -36 17 -36 33 0 22 28 16 35 -7z m5980 -31 c-9 -42 -13 -48 -30 -48 -19
0 -26 27 -9 40 8 7 14 19 14 26 0 8 7 14 16 14 12 0 14 -7 9 -32z m1339 1 c19
-18 19 -18 0 -24 -10 -4 -27 -11 -36 -16 -10 -5 -27 -9 -38 -9 -17 0 -20 7
-20 40 l0 41 38 -7 c20 -3 46 -15 56 -25z m275 17 c9 -10 9 -16 1 -21 -13 -8
-42 14 -34 26 8 13 20 11 33 -5z m-6499 -46 c0 -10 -32 -30 -49 -30 -15 0 -14
27 2 33 21 9 47 7 47 -3z m5363 -22 c10 -14 17 -36 15 -49 -3 -21 -6 -19 -30
23 -16 26 -28 50 -28 53 0 13 24 -2 43 -27z m-6603 -30 c0 -16 -4 -28 -9 -28
-11 0 -18 38 -13 64 6 27 22 0 22 -36z m7069 11 c-6 -13 -9 -40 -6 -63 8 -56
-2 -70 -39 -56 -26 10 -27 13 -12 24 11 8 14 21 11 41 -5 23 -1 33 23 52 36
28 38 28 23 2z m-7054 -72 c21 -16 12 -37 -16 -37 -14 0 -19 7 -19 25 0 28 8
31 35 12z m762 -23 c-3 -3 -12 -4 -19 -1 -8 3 -5 6 6 6 11 1 17 -2 13 -5z
m-244 -59 c1 -5 -6 -11 -15 -13 -11 -2 -18 3 -18 13 0 17 30 18 33 0z m4491
-67 c-43 -40 -100 -92 -125 -115 -48 -45 -73 -53 -82 -28 -12 28 222 209 277
214 4 1 -27 -32 -70 -71z m1639 26 c61 -17 72 -23 59 -36 -7 -7 -21 -5 -43 6
-18 9 -42 16 -55 16 -14 0 -28 9 -35 22 -10 19 -9 20 7 13 11 -4 40 -14 67
-21z m303 -20 c0 -10 3 -26 7 -34 29 -67 29 -70 -9 -106 -21 -18 -41 -31 -46
-28 -4 3 -19 -7 -33 -23 l-24 -28 -1 27 c0 15 4 29 9 33 5 3 7 20 4 38 -3 23
0 37 11 46 9 7 16 23 16 34 0 24 39 69 54 64 6 -2 11 -12 12 -23z m-519 -46
c6 -7 13 -31 16 -53 3 -22 8 -56 12 -75 l6 -35 -30 34 c-45 51 -58 141 -21
141 4 0 12 -6 17 -12z m-4517 -25 c6 -16 15 -36 20 -45 12 -22 13 -48 1 -48
-11 0 -57 68 -66 98 -10 35 33 30 45 -5z m4765 -164 c19 -39 42 -80 52 -92 13
-15 14 -18 3 -13 -8 3 -23 9 -32 12 -25 9 -86 164 -64 164 4 0 22 -32 41 -71z
m830 -58 c3 -5 1 -13 -5 -16 -15 -9 -43 3 -35 15 8 13 32 13 40 1z m-460 -40
c1 -18 -4 -40 -11 -49 -9 -12 -12 -7 -18 27 -3 23 -4 47 0 52 12 20 29 2 29
-30z m-47 -64 c2 -10 -4 -20 -15 -23 -56 -18 -73 -28 -73 -42 0 -8 -8 -24 -17
-34 -11 -12 -17 -34 -16 -59 2 -44 -11 -50 -47 -21 -24 19 -20 42 6 42 18 0
17 10 -1 34 -20 26 -19 36 4 36 11 0 36 20 57 46 32 38 42 45 68 42 20 -2 32
-9 34 -21z m-2148 -42 c0 -8 -53 -54 -62 -55 -17 0 -7 30 14 44 22 16 48 21
48 11z m1410 -55 c0 -5 -4 -10 -10 -10 -5 0 -10 5 -10 10 0 6 5 10 10 10 6 0
10 -4 10 -10z m-5370 -44 c0 -8 -7 -16 -15 -20 -10 -4 -15 1 -15 14 0 11 7 20
15 20 8 0 15 -6 15 -14z m5908 -39 c4 -22 -27 -35 -38 -16 -10 15 7 42 24 36
6 -2 12 -11 14 -20z m-370 -68 c-2 -6 -8 -10 -13 -10 -5 0 -11 4 -13 10 -2 6
4 11 13 11 9 0 15 -5 13 -11z m-5248 -18 c16 -30 13 -46 -6 -31 -26 22 -37 50
-20 50 9 0 20 -9 26 -19z m5457 -80 c27 -11 50 -47 38 -59 -2 -2 -22 4 -44 14
-30 13 -47 29 -61 59 -27 56 -25 63 8 28 15 -16 41 -35 59 -42z m-199 37 c16
-16 15 -38 -2 -38 -18 0 -39 27 -31 40 8 13 18 13 33 -2z m-5583 -97 c-9 -16
-64 -43 -78 -38 -6 2 9 15 33 30 44 26 58 28 45 8z m1758 -5 c25 -19 21 -36
-8 -36 -20 0 -25 5 -25 25 0 28 7 30 33 11z m-333 -21 c-14 -17 -40 -20 -40
-5 0 11 42 31 49 24 2 -2 -2 -10 -9 -19z m-1033 -31 c8 -21 -13 -42 -28 -27
-13 13 -5 43 11 43 6 0 13 -7 17 -16z m1273 -70 c0 -8 -4 -14 -10 -14 -5 0
-10 9 -10 21 0 11 5 17 10 14 6 -3 10 -13 10 -21z m3860 -171 c0 -24 -25 -9
-28 17 -3 21 -2 22 12 11 9 -7 16 -20 16 -28z m-4873 -11 c4 -46 -13 -77 -33
-61 -9 7 -12 19 -8 28 4 9 6 29 5 44 -1 22 2 28 16 25 12 -2 18 -14 20 -36z
m1083 22 c0 -9 -5 -14 -12 -12 -18 6 -21 28 -4 28 9 0 16 -7 16 -16z m-905
-44 c-5 -15 0 -26 17 -39 l23 -19 -29 -8 c-23 -5 -32 -2 -45 14 -9 11 -28 24
-43 27 -16 4 -28 11 -28 16 0 10 53 27 88 28 19 1 22 -3 17 -19z m3262 -25 c3
-9 3 -18 0 -21 -10 -10 -47 7 -47 22 0 19 39 18 47 -1z m813 5 c13 -8 13 -11
-2 -27 -21 -20 -45 -5 -35 21 7 18 16 20 37 6z m-509 -20 c21 -12 25 -40 7
-58 -18 -18 -26 -15 -43 18 -23 44 -7 62 36 40z m-3294 -97 c6 -16 -35 -36
-55 -28 -15 5 -13 9 8 25 26 21 41 21 47 3z m1214 -6 c-13 -13 -26 -3 -16 12
3 6 11 8 17 5 6 -4 6 -10 -1 -17z m1979 -21 c0 -24 -23 -34 -85 -38 -73 -4
-83 11 -24 34 55 21 109 23 109 4z m-2589 -97 c-22 -18 -61 -26 -61 -12 0 4
12 20 27 35 25 26 28 27 43 12 14 -14 13 -17 -9 -35z m3216 24 c-9 -9 -19 -14
-23 -11 -10 10 6 28 24 28 15 0 15 -1 -1 -17z m-3617 -8 c7 -8 8 -15 2 -15 -5
0 -15 7 -22 15 -7 8 -8 15 -2 15 5 0 15 -7 22 -15z m-790 0 c0 -8 -64 -45 -77
-45 -25 0 -13 15 25 32 41 18 52 21 52 13z m1563 -65 c56 -25 68 -40 32 -40
-32 0 -85 29 -85 47 0 17 -1 17 53 -7z m2092 10 c-3 -5 -20 -10 -36 -10 -18 0
-28 4 -24 10 3 6 20 10 36 10 18 0 28 -4 24 -10z m-2864 -74 c-13 -15 -60 -30
-69 -22 -5 6 54 35 72 36 5 0 3 -6 -3 -14z m3309 -35 c0 -11 -25 -21 -53 -21
-22 1 -22 1 -3 15 22 17 56 20 56 6z m-3785 -1101 c-3 -5 -15 -10 -26 -10 -11
0 -17 5 -14 10 3 6 15 10 26 10 11 0 17 -4 14 -10z m132 -196 c-9 -9 -28 6
-21 18 4 6 10 6 17 -1 6 -6 8 -13 4 -17z m4543 -118 c0 -8 -5 -18 -11 -22 -14
-8 -33 11 -25 25 10 16 36 13 36 -3z m-3106 -222 c24 -9 19 -23 -11 -35 -36
-13 -57 6 -29 27 23 16 20 16 40 8z m-1147 -257 c136 -60 263 -126 290 -150
14 -12 29 -17 41 -13 13 5 24 1 29 -8 4 -8 17 -14 28 -13 14 1 21 -5 23 -22 5
-30 -12 -48 -31 -33 -9 8 -24 9 -47 2 -31 -9 -37 -7 -62 21 -28 30 -48 31 -48
3 0 -8 -6 -14 -14 -14 -23 0 -66 41 -66 63 0 14 -13 31 -38 46 -20 14 -62 43
-92 66 -30 23 -83 58 -117 79 -69 41 -81 54 -30 32 17 -8 78 -35 134 -59z
m3764 42 c-1 -13 -12 -30 -23 -37 -10 -8 -23 -25 -28 -38 -5 -13 -30 -34 -59
-49 -58 -29 -86 -32 -77 -10 7 19 -7 19 -45 -1 -24 -12 -28 -18 -19 -29 9 -11
5 -18 -19 -36 -42 -31 -40 -49 5 -49 47 0 40 -23 -10 -31 -35 -6 -83 -41 -129
-97 -30 -36 -117 -102 -134 -102 -10 0 -12 6 -8 20 8 25 -19 27 -61 5 -25 -13
-29 -21 -29 -57 0 -46 -15 -59 -30 -26 -14 32 -39 29 -43 -5 -2 -16 1 -34 7
-40 11 -14 -46 -132 -64 -132 -12 0 -15 95 -4 110 8 11 -11 108 -23 121 -4 3
-19 -1 -33 -10 -22 -15 -29 -15 -42 -4 -11 9 -17 10 -20 2 -2 -6 -10 -20 -18
-30 -14 -18 -15 -18 -34 5 l-19 24 -38 -30 c-76 -60 -88 -79 -95 -149 -4 -43
-13 -72 -26 -87 -28 -31 -36 -57 -18 -57 22 0 18 -34 -5 -55 -11 -10 -20 -25
-20 -33 0 -19 -59 -122 -70 -122 -17 0 -19 31 -4 72 25 71 46 169 54 258 5 47
12 99 15 117 6 26 3 32 -13 37 -28 9 -45 33 -38 51 4 11 11 13 30 5 22 -8 31
-4 66 30 22 21 40 44 40 51 0 6 16 29 35 50 20 22 35 50 35 63 0 41 110 110
223 140 50 14 100 28 109 31 18 7 58 -26 58 -47 1 -7 14 -28 30 -47 34 -40 49
-37 87 18 36 51 114 91 178 91 48 0 162 24 205 44 13 6 42 30 64 54 44 45 63
49 57 11z m-2521 -47 c0 -24 -1 -25 -16 -10 -10 9 -14 24 -10 33 9 23 26 9 26
-23z m438 -55 c4 -29 -12 -37 -22 -11 -10 26 -7 46 7 42 6 -3 13 -17 15 -31z
m62 13 c0 -5 -4 -10 -10 -10 -5 0 -10 5 -10 10 0 6 5 10 10 10 6 0 10 -4 10
-10z m-762 -70 c18 -4 47 -19 65 -32 47 -36 83 -46 176 -51 66 -4 96 -11 146
-36 70 -35 85 -38 85 -16 0 11 11 15 43 14 23 0 51 -4 62 -9 l20 -8 -20 -7
c-61 -21 -61 -22 -3 -34 56 -12 57 -12 98 18 23 16 48 27 56 24 9 -3 28 4 44
16 47 34 74 21 45 -23 -11 -17 -13 -26 -5 -31 6 -4 14 -4 17 -1 4 3 16 -3 27
-13 31 -29 277 -49 330 -27 39 16 48 44 21 66 -8 7 -12 16 -9 21 10 16 43 9
58 -12 l14 -21 22 22 c23 23 51 22 118 -6 26 -11 32 -18 32 -43 0 -26 4 -31
24 -31 37 0 56 10 56 30 0 21 6 23 102 40 69 12 118 8 118 -10 0 -14 -53 -45
-130 -76 -36 -14 -82 -34 -102 -45 -23 -12 -57 -19 -92 -19 -74 0 -86 -17 -83
-125 2 -88 -13 -138 -78 -263 -65 -126 -94 -231 -104 -372 -7 -89 -8 -93 -20
-65 -14 33 -8 173 10 255 6 25 10 81 10 125 -1 62 5 96 24 150 24 68 33 163
19 200 -6 14 -8 14 -25 -1 -28 -25 -34 -10 -20 47 7 27 12 52 10 53 -2 2 -18
6 -36 9 -27 5 -38 1 -65 -23 -18 -17 -36 -30 -40 -30 -15 0 -8 29 10 39 16 10
16 12 -3 27 -15 11 -44 15 -120 14 -152 0 -315 19 -385 47 -44 18 -143 23
-180 10 -38 -13 -34 0 -51 -167 -4 -46 1 -81 11 -75 6 3 10 16 10 29 0 13 5
38 11 55 10 27 15 32 34 27 14 -4 25 -1 27 6 6 16 28 0 28 -20 0 -9 14 -30 31
-48 16 -17 36 -52 44 -78 l14 -47 -36 -40 c-23 -26 -43 -39 -56 -37 -17 2 -23
-6 -33 -44 -10 -39 -9 -65 3 -140 17 -106 10 -153 -33 -203 l-26 -30 8 35 c13
64 11 75 -17 78 -18 2 -32 14 -44 37 -17 29 -21 32 -42 22 -31 -14 -38 -5 -24
34 17 49 14 71 -18 121 -27 42 -34 47 -78 54 -51 7 -125 38 -142 58 -6 7 -12
42 -13 77 -3 53 0 64 15 67 14 3 17 -4 17 -43 0 -71 30 -114 80 -115 15 0 30
8 38 20 10 16 21 20 49 18 34 -3 37 -1 46 32 5 19 12 40 17 45 4 6 10 44 13
85 4 41 14 96 23 123 9 26 14 54 11 61 -3 8 -34 24 -70 35 -35 12 -78 32 -96
45 -34 26 -159 51 -221 44 -35 -3 -35 -3 -37 41 -1 34 3 48 20 61 19 16 25 16
67 3 25 -8 60 -18 78 -23z m-218 -96 c0 -8 10 -32 22 -54 21 -35 22 -42 10
-85 -35 -130 -61 -143 -89 -44 -9 33 -21 59 -27 59 -6 0 -22 -9 -36 -20 -14
-11 -28 -20 -32 -20 -16 0 -7 63 15 100 17 31 28 40 48 40 15 0 37 9 50 20 29
24 39 25 39 4z m-489 -83 c19 -19 29 -40 29 -59 0 -16 12 -46 26 -67 24 -37
27 -85 5 -85 -15 0 -80 95 -96 140 -18 50 -20 100 -4 100 6 0 24 -13 40 -29z
m1261 -173 c-2 -38 -8 -68 -13 -68 -5 0 -7 33 -5 73 5 94 5 95 14 77 5 -8 6
-45 4 -82z m1823 71 c4 -5 -1 -19 -11 -30 -24 -26 -28 -118 -7 -141 14 -15 14
-18 2 -18 -8 0 -20 5 -26 11 -8 8 -18 6 -36 -5 -26 -18 -57 -12 -57 10 0 8 10
14 25 14 19 0 25 5 25 23 0 12 7 30 15 40 7 11 11 25 8 32 -6 17 27 75 44 75
6 0 15 -5 18 -11z m-2422 -75 c10 -10 -22 -64 -37 -64 -22 0 -28 31 -10 51 17
19 36 24 47 13z m2757 -34 c0 -14 -55 -40 -84 -40 -42 0 -38 17 6 33 52 18 78
20 78 7z m-1796 -220 c-9 -36 -29 -92 -44 -125 -15 -33 -29 -84 -33 -113 -7
-58 -14 -75 -28 -67 -12 8 -12 43 1 97 12 56 34 223 35 268 0 31 4 35 28 38
22 3 27 8 27 29 0 15 6 42 13 61 12 34 12 33 15 -44 2 -52 -3 -101 -14 -144z
m-1597 163 c0 -52 29 -155 47 -168 17 -13 17 -15 -5 -44 -13 -17 -26 -31 -29
-31 -12 0 -42 190 -35 223 12 53 22 63 22 20z m3153 -63 c0 -5 -9 -10 -21 -10
-11 0 -17 5 -14 10 3 6 13 10 21 10 8 0 14 -4 14 -10z m-1910 -31 c0 -6 9 -22
20 -36 11 -14 20 -38 20 -52 0 -15 16 -66 35 -114 42 -101 54 -177 33 -194 -7
-7 -19 -9 -25 -5 -15 10 -42 110 -42 157 1 42 -15 80 -44 109 -13 13 -17 34
-17 82 0 36 4 64 10 64 6 0 10 -5 10 -11z m-1100 -39 c0 -12 -35 -31 -43 -24
-3 3 -3 12 0 20 6 16 43 19 43 4z m1634 -93 c-2 -7 -24 -25 -47 -40 -52 -34
-63 -17 -16 23 35 30 72 40 63 17z m-126 -349 c19 -19 14 -28 -18 -28 -18 0
-30 5 -30 13 0 28 27 36 48 15z m287 -48 c3 -5 2 -10 -4 -10 -5 0 -13 5 -16
10 -3 6 -2 10 4 10 5 0 13 -4 16 -10z m-787 -43 c2 -11 -3 -17 -17 -17 -23 0
-35 15 -26 31 10 15 39 6 43 -14z m47 -55 c0 -18 -20 -15 -23 4 -3 10 1 15 10
12 7 -3 13 -10 13 -16z m1208 -220 c33 -11 61 -15 69 -11 17 11 58 11 58 0 0
-5 -6 -14 -14 -20 -11 -9 -32 -9 -91 2 -42 8 -84 13 -94 10 -23 -6 -38 16 -20
28 20 12 29 11 92 -9z m-263 0 c0 -22 -28 -43 -53 -40 -36 4 -32 20 7 34 40
15 46 16 46 6z m-168 -80 c-1 -32 4 -77 12 -100 24 -66 97 -212 107 -212 10 0
12 -80 3 -104 -3 -9 -13 -16 -20 -16 -8 0 -19 -11 -24 -25 -14 -37 -18 -31
-17 33 0 75 -23 174 -57 240 -44 86 -54 294 -13 253 6 -6 10 -37 9 -69z
m-1291 26 c3 -33 -4 -54 -22 -70 -22 -19 -26 -40 -5 -32 21 8 25 -16 14 -112
-5 -49 -9 -102 -9 -118 0 -29 -24 -86 -36 -86 -3 0 -3 22 1 50 7 53 -8 104
-38 129 -12 10 -15 22 -10 50 10 52 32 101 49 108 8 3 15 15 15 27 0 37 12 66
26 66 8 0 15 -6 15 -12z m535 -119 c7 -12 -35 -109 -48 -109 -14 0 -9 47 9 85
17 36 27 43 39 24z m1154 -36 c7 -21 20 -47 30 -58 27 -30 70 -121 70 -147 0
-13 -13 -35 -29 -50 l-29 -28 -5 38 c-3 20 -10 57 -16 82 -6 25 -14 61 -17 80
-4 19 -12 42 -20 50 -7 8 -16 27 -19 43 -11 44 21 35 35 -10z m-1886 2 c-6
-16 -24 -21 -24 -7 0 11 11 22 21 22 5 0 6 -7 3 -15z m1061 -73 c-5 -14 -8
-14 -15 -3 -8 14 -7 23 7 59 5 13 8 11 11 -11 2 -16 1 -36 -3 -45z m-320 -162
c7 -142 0 -175 -29 -151 -12 10 -19 10 -38 -2 -13 -8 -34 -18 -46 -22 -21 -6
-23 -5 -13 13 6 12 11 54 11 96 0 41 5 87 10 102 l11 27 24 -23 25 -23 0 59
c0 60 17 98 31 71 4 -7 11 -73 14 -147z m360 -51 c23 -129 19 -199 -11 -199
-7 0 -18 -9 -24 -20 -33 -62 -41 68 -10 157 11 32 20 80 20 107 0 68 8 54 25
-45z m751 -184 c6 -24 0 -44 -10 -34 -11 11 -17 59 -7 59 6 0 13 -11 17 -25z
m-875 -32 c1 -21 0 -52 -1 -68 -1 -20 6 -38 19 -49 21 -19 27 -41 14 -49 -5
-3 -23 -8 -41 -12 l-33 -7 6 89 c3 48 8 98 11 111 7 35 24 25 25 -15z m775
-48 c7 -29 1 -41 -15 -30 -14 8 -14 55 -1 55 5 0 12 -11 16 -25z m-1346 -25
c0 -11 -4 -20 -9 -20 -11 0 -22 26 -14 34 12 12 23 5 23 -14z"/>
<path d="M15137 10128 c3 -18 13 -38 22 -45 23 -16 27 -6 7 16 -10 10 -16 27
-14 36 2 10 -3 20 -9 22 -9 3 -11 -4 -6 -29z"/>
<path d="M8470 9956 c0 -24 16 -43 27 -32 8 8 -6 56 -17 56 -6 0 -10 -11 -10
-24z"/>
<path d="M8590 9750 c0 -11 7 -20 15 -20 8 0 15 9 15 20 0 11 -7 20 -15 20 -8
0 -15 -9 -15 -20z"/>
<path d="M8805 9270 c3 -5 10 -10 16 -10 5 0 9 5 9 10 0 6 -7 10 -16 10 -8 0
-12 -4 -9 -10z"/>
<path d="M8910 9240 c-12 -23 -6 -40 16 -40 8 0 14 10 14 24 0 33 -16 42 -30
16z"/>
<path d="M8920 9129 c-9 -16 -9 -24 -1 -32 12 -12 31 6 31 30 0 22 -19 24 -30
2z"/>
<path d="M8975 8930 c3 -5 8 -10 11 -10 2 0 4 5 4 10 0 6 -5 10 -11 10 -5 0
-7 -4 -4 -10z"/>
<path d="M8990 8890 c0 -15 5 -20 18 -18 9 2 17 10 17 18 0 8 -8 16 -17 18
-13 2 -18 -3 -18 -18z"/>
<path d="M8985 8820 c-21 -24 -12 -40 13 -22 9 7 27 16 40 22 30 13 28 20 -6
20 -16 0 -37 -9 -47 -20z"/>
<path d="M9020 8741 c0 -30 17 -34 22 -6 4 17 1 25 -8 25 -8 0 -14 -9 -14 -19z"/>
<path d="M10400 8749 c0 -6 -7 -17 -15 -25 -8 -9 -15 -20 -15 -26 0 -15 120
-137 142 -144 12 -3 27 1 39 12 15 14 24 15 43 6 22 -10 44 -9 85 4 22 7 -3
26 -66 53 -29 12 -85 46 -125 76 -75 56 -88 63 -88 44z"/>
<path d="M9610 8641 c0 -38 13 -66 48 -103 28 -30 47 -35 55 -15 7 17 -10 45
-60 102 l-43 48 0 -32z"/>
<path d="M10380 8444 c0 -22 -8 -36 -29 -51 -31 -24 -45 -67 -26 -83 14 -12
25 -56 17 -65 -3 -3 -16 2 -29 10 -13 9 -23 11 -23 5 0 -5 4 -10 9 -10 6 0 11
-15 13 -32 3 -33 8 -35 41 -23 14 6 17 1 17 -27 0 -19 -5 -39 -12 -46 -16 -16
15 -48 53 -57 25 -6 27 -4 33 32 4 21 9 53 13 72 5 32 4 34 -20 27 -37 -9 -57
27 -31 55 21 23 12 47 -26 66 -36 18 -53 53 -26 53 7 0 25 9 39 20 32 26 45
25 49 -1 5 -32 31 -45 62 -31 31 14 34 42 7 66 -16 15 -19 15 -31 1 -18 -22
-30 -19 -67 17 l-33 32 0 -30z"/>
<path d="M10160 8392 c0 -33 21 -62 45 -62 25 0 33 21 17 47 -10 16 -62 28
-62 15z"/>
<path d="M10763 8374 c-7 -19 26 -88 42 -86 6 1 10 23 10 50 0 41 -3 47 -23
50 -14 2 -25 -3 -29 -14z"/>
<path d="M9756 8338 c4 -7 13 -20 19 -28 7 -8 16 -30 20 -47 6 -30 4 -33 -17
-33 -33 0 -67 -56 -47 -76 10 -9 26 -12 52 -7 34 5 37 8 37 39 0 19 2 34 4 34
16 0 63 -24 94 -49 20 -15 44 -31 53 -34 24 -8 59 20 59 48 l0 25 -35 -20
c-20 -11 -40 -20 -45 -20 -5 0 -20 24 -34 53 -34 69 -59 97 -88 97 -13 0 -33
7 -44 15 -24 18 -38 19 -28 3z"/>
<path d="M10530 8330 c-12 -8 -10 -10 8 -10 13 0 20 4 17 10 -7 12 -6 12 -25
0z"/>
<path d="M10585 8330 c3 -5 16 -15 28 -21 22 -12 22 -12 3 10 -19 21 -43 30
-31 11z"/>
<path d="M9415 8320 c-3 -5 3 -10 15 -10 12 0 18 5 15 10 -3 6 -10 10 -15 10
-5 0 -12 -4 -15 -10z"/>
<path d="M10660 8255 c7 -9 15 -13 17 -11 7 7 -7 26 -19 26 -6 0 -6 -6 2 -15z"/>
<path d="M10830 8198 c1 -18 25 -48 39 -48 15 0 14 33 -1 48 -16 16 -38 15
-38 0z"/>
<path d="M10180 8151 c0 -12 5 -21 10 -21 6 0 10 6 10 14 0 8 -4 18 -10 21 -5
3 -10 -3 -10 -14z"/>
<path d="M10915 8130 c3 -5 8 -10 11 -10 2 0 4 5 4 10 0 6 -5 10 -11 10 -5 0
-7 -4 -4 -10z"/>
<path d="M9745 8090 c-3 -5 -3 -10 2 -10 4 0 19 -3 33 -6 24 -5 24 -5 6 10
-23 19 -32 20 -41 6z"/>
<path d="M10293 8054 c-14 -38 35 -64 93 -50 38 10 28 32 -18 45 -24 7 -49 15
-55 17 -7 3 -16 -2 -20 -12z"/>
<path d="M9977 8033 c-2 -4 2 -29 10 -55 11 -39 18 -48 36 -48 46 0 61 41 30
78 -19 23 -68 39 -76 25z"/>
<path d="M9778 7988 c-2 -13 1 -34 8 -48 7 -14 16 -47 21 -74 7 -43 12 -51 35
-57 35 -9 68 -1 68 17 0 10 10 13 33 12 31 -3 32 -2 30 34 -1 21 -14 60 -28
88 l-25 50 -69 0 c-64 0 -70 -2 -73 -22z"/>
<path d="M9675 7960 c-3 -11 -11 -20 -16 -20 -21 0 -7 -18 18 -23 39 -7 45 0
28 34 -18 34 -22 35 -30 9z"/>
<path d="M10646 7489 c-15 -9 -16 -13 -5 -20 8 -5 27 -9 42 -9 22 0 28 4 25
18 -4 20 -36 26 -62 11z"/>
<path d="M14580 9169 c0 -5 5 -7 10 -4 6 3 10 8 10 11 0 2 -4 4 -10 4 -5 0
-10 -5 -10 -11z"/>
<path d="M13782 9143 c-22 -9 -62 -103 -44 -103 9 0 72 92 72 105 0 6 -10 5
-28 -2z"/>
<path d="M13702 8668 c-7 -7 -12 -20 -12 -30 0 -13 -8 -18 -31 -18 -21 0 -45
-13 -80 -42 -47 -40 -86 -94 -76 -104 9 -9 36 8 31 20 -8 21 31 46 87 55 35 6
57 15 64 27 5 10 22 29 38 43 32 30 33 37 9 50 -13 7 -23 6 -30 -1z"/>
<path d="M14256 8631 c-4 -5 3 -15 15 -21 28 -15 34 -7 10 14 -12 11 -21 13
-25 7z"/>
<path d="M13445 8424 c-31 -31 -11 -45 32 -21 22 12 22 13 3 25 -15 9 -22 9
-35 -4z"/>
<path d="M12797 8423 c-4 -3 -7 -11 -7 -17 0 -6 5 -5 12 2 6 6 9 14 7 17 -3 3
-9 2 -12 -2z"/>
<path d="M13556 8324 c-14 -20 -20 -23 -27 -13 -18 30 -120 14 -151 -25 -14
-17 -14 -22 -2 -31 8 -5 17 -28 20 -50 11 -80 12 -82 54 -93 32 -8 44 -7 55 4
20 21 62 17 75 -6 6 -11 16 -18 22 -14 13 8 1 163 -14 182 -6 6 -8 26 -4 42 7
37 -3 38 -28 4z"/>
<path d="M13690 8326 c0 -21 -21 -31 -31 -15 -4 7 -11 10 -15 6 -9 -8 -8 -136
0 -145 3 -3 14 2 24 11 26 24 42 21 42 -8 0 -22 4 -25 35 -25 20 0 49 -7 64
-14 52 -27 91 1 69 49 -9 20 -19 25 -57 27 l-46 3 -8 50 c-4 27 -13 55 -19 62
-14 18 -58 17 -58 -1z"/>
<path d="M12637 8212 c-21 -22 -21 -32 -4 -32 18 0 49 34 40 43 -10 11 -19 8
-36 -11z"/>
<path d="M13160 8196 c0 -16 27 -29 42 -20 7 5 4 12 -7 21 -24 17 -35 17 -35
-1z"/>
<path d="M13325 8191 c-16 -3 -31 -14 -33 -23 -4 -23 26 -90 39 -86 8 3 46 92
49 116 0 3 -20 1 -55 -7z"/>
<path d="M13132 8128 c5 -15 48 -24 48 -10 0 10 -23 22 -42 22 -5 0 -8 -6 -6
-12z"/>
<path d="M13208 8122 c-23 -5 -23 -34 0 -55 27 -25 42 -21 42 12 0 32 -17 49
-42 43z"/>
<path d="M12897 8040 c-81 -57 -108 -90 -72 -90 9 0 27 7 40 16 36 24 31 1
-10 -45 -19 -21 -35 -44 -35 -50 0 -6 -6 -11 -14 -11 -8 0 -16 -7 -20 -15 -3
-8 -3 -15 1 -15 17 0 90 25 103 35 8 7 41 27 73 45 61 34 66 46 43 101 -4 10
0 23 10 34 13 13 15 21 7 34 -18 29 -37 23 -126 -39z"/>
<path d="M13780 8090 c-13 -9 -13 -11 0 -20 8 -5 20 -10 25 -10 19 0 38 18 31
29 -9 14 -36 14 -56 1z"/>
<path d="M12670 8055 c-20 -15 -47 -25 -67 -25 -21 0 -36 -6 -41 -17 -17 -32
-22 -78 -12 -93 9 -13 14 -10 33 14 47 62 68 82 74 68 4 -10 9 -7 17 9 11 22
25 33 61 44 16 5 17 8 5 15 -23 15 -33 12 -70 -15z"/>
<path d="M13382 8068 c-18 -18 -15 -35 8 -41 24 -6 34 6 25 33 -7 23 -16 25
-33 8z"/>
<path d="M13843 8012 c-29 -11 -43 -22 -43 -34 0 -10 -5 -27 -12 -38 -15 -23
-5 -35 19 -25 10 4 27 7 38 6 11 0 25 2 30 6 14 10 36 84 29 95 -7 10 -11 10
-61 -10z"/>
<path d="M13100 7961 c-14 -27 -13 -41 4 -41 21 0 46 28 40 45 -8 21 -31 19
-44 -4z"/>
<path d="M12675 7918 c-46 -26 -58 -75 -29 -116 33 -47 76 -20 68 42 -5 31 -2
45 10 55 9 7 16 17 16 22 0 13 -41 11 -65 -3z"/>
<path d="M14133 7907 c-49 -17 -69 -31 -92 -62 -38 -52 -61 -118 -49 -139 20
-35 148 -5 148 34 0 13 9 20 27 22 20 2 29 10 34 32 4 15 14 36 23 45 8 9 16
32 18 51 3 31 0 35 -22 37 -14 1 -53 -8 -87 -20z m-13 -147 c0 -5 -12 -10 -27
-10 -22 0 -25 2 -13 10 20 13 40 13 40 0z"/>
<path d="M13706 7803 c-9 -22 -3 -25 19 -10 15 12 16 15 2 20 -9 3 -18 -1 -21
-10z"/>
<path d="M13800 7811 c0 -18 32 -41 56 -41 30 0 30 7 2 31 -24 19 -58 25 -58
10z"/>
<path d="M12552 7770 c0 -14 2 -19 5 -12 2 6 2 18 0 25 -3 6 -5 1 -5 -13z"/>
<path d="M13744 7749 c-8 -14 4 -25 38 -33 31 -7 45 8 28 29 -15 17 -56 20
-66 4z"/>
<path d="M13091 7722 c-19 -9 -37 -23 -39 -29 -7 -23 36 -14 63 12 39 40 32
46 -24 17z"/>
<path d="M13447 7653 c-12 -11 -8 -23 7 -23 7 0 19 7 26 15 10 12 9 15 -7 15
-11 0 -23 -3 -26 -7z"/>
<path d="M12664 7625 c19 -76 40 -96 52 -49 8 33 -13 74 -39 74 -15 0 -18 -5
-13 -25z"/>
<path d="M12780 7609 c0 -5 5 -7 10 -4 6 3 10 8 10 11 0 2 -4 4 -10 4 -5 0
-10 -5 -10 -11z"/>
<path d="M13185 5128 c-16 -6 -38 -18 -49 -27 -10 -9 -34 -20 -53 -26 -43 -12
-46 -28 -7 -35 26 -5 29 -9 28 -40 0 -19 -2 -44 -5 -54 -14 -63 56 9 124 127
38 64 28 78 -38 55z"/>
<path d="M13390 5029 c-33 -35 -60 -60 -60 -57 0 3 7 22 15 41 16 39 15 41
-31 51 -27 6 -35 3 -58 -26 -15 -18 -46 -53 -69 -78 l-42 -45 28 -3 c19 -2 27
-9 27 -23 0 -10 7 -19 15 -19 8 0 15 4 15 10 0 20 76 57 131 64 50 6 59 11 93
52 24 28 36 52 34 67 -6 41 -36 31 -98 -34z"/>
<path d="M12905 4875 c-16 -13 -41 -24 -54 -25 -20 0 -22 -3 -16 -27 4 -16 8
-30 11 -32 2 -2 30 21 61 52 58 56 56 80 -2 32z"/>
<path d="M11075 5150 c-3 -5 -1 -10 4 -10 6 0 11 5 11 10 0 6 -2 10 -4 10 -3
0 -8 -4 -11 -10z"/>
<path d="M12354 4879 c-3 -6 3 -21 15 -32 l21 -21 0 32 c0 32 -21 45 -36 21z"/>
<path d="M11515 4717 c-19 -46 -19 -57 1 -57 22 0 54 19 54 31 0 6 -9 22 -20
36 l-20 26 -15 -36z"/>
<path d="M11480 4566 c0 -19 5 -38 11 -42 8 -5 10 1 5 19 -3 14 -2 29 4 32 15
9 12 25 -5 25 -10 0 -15 -10 -15 -34z"/>
<path d="M12354 4552 c-21 -14 -50 -94 -46 -124 l5 -31 12 34 c7 19 20 51 29
72 18 41 18 61 0 49z"/>
</g>
</svg>
